# xmcd
#
# Track frame offsets:
#	150
#	14914
#	30986
#	45379
#	63138
#	77327
#	99519
#	115296
#	129132
#	143544
#	155618
#
# Disc length: 2268 seconds
#
# Revision: 0
# Processed by: cddbd v1.5.2PL0 Copyright (c) Steve Scherf et al.
# Submitted via: dBpowerAMP V4.0
#
DISCID=7b08da0b
DTITLE=Johnny B and the Goodes - Have Mercy
DYEAR=2009
DGENRE=Blues
TTITLE0=Trouble No More
TTITLE1=Blue Lights
TTITLE2=I'm Ready
TTITLE3=Hard Hearted Woman
TTITLE4=Nine Below Zero
TTITLE5=Honey Bee
TTITLE6=Mood Tuesday
TTITLE7=It's Too Late Brother
TTITLE8=I'm Lonesome
TTITLE9=Good Rockin' Tonight
TTITLE10=Mellow Down Easy
EXTD=
EXTT0=
EXTT1=
EXTT2=
EXTT3=
EXTT4=
EXTT5=
EXTT6=
EXTT7=
EXTT8=
EXTT9=
EXTT10=
PLAYORDER=
